<?xml version="1.0" standalone="no"?>
<svg xmlns="http://www.w3.org/2000/svg" height="1920pt" preserveAspectRatio="xMidYMid meet" viewBox="0 0 1684 1920" width="1684pt">
  <path d="m8993 19097c-18-51-102-297-188-547s-170-494-187-542l-31-88-606-2-606-3 470-353c259-195 469-357 468-360-1-4-166-268-366-587-201-319-364-581-362-583s188 92 415 208 414 209 417 207c6-6-149-316-288-575-406-758-818-1372-1225-1828-122-137-1225-1240-1559-1560-275-263-685-649-838-788-53-49-95-91-93-93 2-3 147 27 323 66 1082 240 1634 361 1643 361 42 0-178-334-397-602-450-552-1312-1420-1914-1929-657-555-1243-930-1689-1083-58-20-98-36-89-36s99-11 200-25c101-13 324-42 494-64 1114-144 1870-243 1873-245 5-6-591-583-854-826-724-671-1259-1090-1749-1370-502-286-1251-605-1955-830-124-40-233-75-244-79-14-5 14-21 110-63 796-347 1557-573 2129-633 244-26 604-17 915 21 477 59 1084 193 1550 343 68 22 126 39 127 37 2-2-20-13-49-26-29-12-147-64-263-115-898-397-1135-502-1385-612-157-70-289-130-295-135-6-6 43-7 125-4 74 3 261 8 415 11 1253 25 2475 100 3115 191 426 61 867 192 1266 378 66 31 124 56 127 56 4 0 7-326 7-725v-725h-625c-388 0-625-4-625-9 0-9 63-374 205-1183 122-704 168-966 215-1238 28-157 57-327 66-377l16-93h1758 1758l5 23c3 12 58 288 122 612 64 325 129 655 145 735 47 231 300 1516 300 1523 0 4-281 7-625 7h-625v490c0 270 2 490 5 490s79-18 168-39c326-79 504-108 887-146 642-63 1134-80 2030-70 377 4 741 10 810 14l125 6-320 169c-176 93-446 236-600 318-154 81-274 148-268 148 7 0 93-13 190-29 681-112 1590-161 1998-106 484 65 976 218 1460 455 110 54 209 105 219 113 18 13 0 24-225 135-890 440-1622 916-2058 1337-273 263-626 728-926 1220-102 166-435 742-435 751 0 3 19-11 43-30 216-177 729-261 1382-227 648 34 1107 137 1415 316 157 92 296 253 315 365l6 35-118 31c-515 138-1252 505-1943 969-571 383-843 607-1326 1089-496 497-875 952-1247 1498-157 230-336 523-326 533 2 2 200 13 439 25s539 27 665 33l230 12-65 24c-386 143-885 545-1347 1086-367 430-1130 1539-1627 2367-75 125-136 229-136 232 0 7 42-12 496-228 225-107 410-193 412-191 2 1-162 236-364 520l-368 518 30 25c105 90 813 716 811 717s-245-7-914-28l-163-6-11 42c-6 23-33 119-59 212-62 217-210 741-257 910-20 72-39 133-42 137s-20-34-38-85zm4062-10822c19-35 22-45 9-34-15 13-44 68-44 85 0 12 8 0 35-51z" transform="matrix(.1 0 0 -.1 0 1920)" fill="#F44545" stroke="none" stroke-width="2" vector-effect="non-scaling-stroke"/>
</svg>
