<svg width="378" height="513" viewBox="0 0 378 513" fill="none" xmlns="http://www.w3.org/2000/svg">
<g clip-path="url(#clip0_23_3)">
<rect width="378" height="513" fill="#F3ECE3"/>
<rect x="203.142" y="-223.833" width="30" height="700" transform="rotate(45 203.142 -223.833)" fill="#5AF471"/>
<rect x="252.64" y="-174.335" width="30" height="700" transform="rotate(45 252.64 -174.335)" fill="#F45A5A"/>
<rect x="302.137" y="-124.838" width="30" height="700" transform="rotate(45 302.137 -124.838)" fill="#5AF471"/>
<rect x="351.635" y="-75.3402" width="30" height="700" transform="rotate(45 351.635 -75.3402)" fill="#F45A5A"/>
<rect x="401.132" y="-25.8428" width="30" height="700" transform="rotate(45 401.132 -25.8428)" fill="#5AF471"/>
<rect x="450.63" y="23.6547" width="30" height="700" transform="rotate(45 450.63 23.6547)" fill="#F45A5A"/>
<rect x="500.127" y="73.1522" width="30" height="700" transform="rotate(45 500.127 73.1522)" fill="#5AF471"/>
<rect x="549.624" y="122.65" width="30" height="700" transform="rotate(45 549.624 122.65)" fill="#F45A5A"/>
<rect x="599.122" y="172.147" width="30" height="700" transform="rotate(45 599.122 172.147)" fill="#5AF471"/>
<rect x="648.619" y="221.645" width="30" height="700" transform="rotate(45 648.619 221.645)" fill="#F45A5A"/>
</g>
<defs>
<clipPath id="clip0_23_3">
<rect width="378" height="513" fill="white"/>
</clipPath>
</defs>
</svg>
