<?xml version="1.0" standalone="no"?>
<svg xmlns="http://www.w3.org/2000/svg" height="1920pt" preserveAspectRatio="xMidYMid meet" viewBox="0 0 1505 1920" width="1505pt">
  <path d="m7495 15184c-350-35-614-122-884-289-222-138-451-370-588-595-33-54-55-76-134-130-119-82-304-267-391-390-125-176-223-400-269-617-33-153-38-438-10-603 40-235 129-450 264-640 70-99 260-320 275-320 4 0 27-19 52-41 100-92 327-218 473-264 31-10 57-23 57-29s-7-85-15-176-23-266-34-390-30-328-41-455c-31-356-48-547-110-1240-11-126-20-232-20-236 0-3-52-9-115-13-542-30-1080-184-1508-429-257-147-439-286-657-506-313-315-521-631-629-956-159-477-126-979 93-1440 307-645 939-1115 1770-1315 228-55 406-80 871-120 317-28 3657-322 4150-366 566-51 760-43 1013 37 389 124 680 393 847 784 116 271 176 601 215 1180 6 88 20 228 31 310 10 83 28 251 39 375 58 670 114 1310 145 1660 48 546 85 968 150 1710 31 349 67 761 80 915 14 154 25 285 25 292 0 6 24 17 53 23 108 26 350 101 447 140 431 172 744 459 894 822 61 147 87 272 93 443 6 177-9 283-63 445-73 219-183 389-378 585l-130 129-16 81c-39 181-148 397-290 570-73 88-256 267-335 327-294 223-653 368-1050 424-182 26-469 24-662-5l-153-23-100 36c-116 41-252 76-395 103-81 14-150 18-365 17-150 0-292-5-326-11-58-11-68-10-153 18-233 75-450 103-730 96-213-5-316-18-497-62l-101-25-74 30c-113 47-261 89-393 110-116 19-342 32-421 24z" transform="matrix(.1 0 0 -.1 0 1920)" fill="#F44545" stroke="none" stroke-width="2" vector-effect="non-scaling-stroke"/>
</svg>
