<?xml version="1.0" standalone="no"?>
<svg xmlns="http://www.w3.org/2000/svg" height="1920pt" preserveAspectRatio="xMidYMid meet" viewBox="0 0 1157 1920" width="1157pt">
  <path d="m8393 19185c-149-40-271-114-394-238-459-462-741-1589-844-3367-29-505-38-956-33-1677l5-711-46-7c-171-26-344-154-424-315-51-100-71-200-65-321 5-96 4-98-16-94-324 75-735 165-756 165-16 0-31-4-35-9-3-5-55-229-116-498-61-268-112-489-113-490-2-2-61-8-132-13-657-52-1234-186-1819-424-185-75-545-254-720-356-836-491-1538-1183-2032-2005-413-687-686-1479-788-2290-39-308-48-502-42-847 5-313 18-475 58-743 253-1713 1266-3233 2744-4122 712-428 1479-688 2345-794 210-26 840-38 1067-20 1759 138 3344 1070 4330 2546 141 210 251 403 378 660 331 670 519 1330 592 2085 23 245 23 771 0 1010-105 1059-448 1991-1046 2840-371 527-836 1003-1353 1383-173 127-510 342-643 410-96 49-98-3 14 482 54 237 102 445 106 463s18 46 32 62c18 22 21 31 11 35-7 3-236 55-508 115-272 61-495 112-497 113-1 2 12 25 31 53 70 104 115 277 101 387-21 171-105 321-231 415l-51 38 85 145c305 519 706 1278 962 1819 510 1077 798 1910 906 2625 26 171 27 582 1 709-71 351-229 577-493 707-126 61-251 89-398 88-70 0-143-6-173-14zm361-271c145-47 273-147 345-267 148-250 160-676 35-1255-194-906-785-2269-1632-3766l-107-188-8 73c-11 98-1 1488 12 1744 39 739 75 1149 142 1620 166 1157 449 1846 833 2026 105 49 254 54 380 13zm-1575-6024c34-36 43-40 85-40 26 0 60 7 77 15 28 15 32 14 58-4 37-27 78-81 103-139 43-97 20-247-52-337-38-48-99-94-125-95-11 0-103 19-205 41-169 38-187 44-212 72-63 70-76 226-29 332 36 83 123 159 211 186 43 13 50 10 89-31z" transform="matrix(.1 0 0 -.1 0 1920)" fill="#F44545" stroke="none" stroke-width="2" vector-effect="non-scaling-stroke"/>
</svg>
